<svg xmlns="http://www.w3.org/2000/svg" width="902" height="279.49" viewBox="0 0 902 279.49"><defs><style>@media (prefers-color-scheme:dark){path{fill:#fff}}.a{fill:#f7941d;}.b{fill:#fff;}</style></defs><rect class="a" x="53.33" y="53.33" width="172.83" height="172.83" rx="30.32"/><path class="b" d="M208.41,129.7l-32.82-16.41,8.11,12.29a5.38,5.38,0,0,1-4.16,8.34l-15.22.91,11.48,5.74L88.24,184.35V164.59l-1.38-2.39-9.13-15.82a1.65,1.65,0,0,0-2.85,0L65.75,162.2l-1.81,3.14V204a12.15,12.15,0,0,0,17.58,10.87l126.89-63.44a12.16,12.16,0,0,0,0-21.74Z"/><path class="b" d="M81,142.44,88.24,155V96.79l53.86,26.93,1.32.66L156,130.66l3.19-.19,18.22-1.09a1.65,1.65,0,0,0,1.28-2.56l-10.06-15.23-1.76-2.67-12.56-6.28L153,102,81.52,66.26A12.15,12.15,0,0,0,63.94,77.13v78.66l7.71-13.35A5.38,5.38,0,0,1,81,142.44Z"/><path d="M260.71,149H279q1,8.4,5.39,11.87t12.9,3.46q16.37,0,16.37-13.41,0-6.06-3.25-9.22t-10.32-4.35l-9.58-1.62q-27.58-4.58-27.58-28.32,0-14.16,9.36-22.41t24.85-8.26q15,0,23.82,8t9.95,22.42H312.32q-.44-7.38-4.28-10.77T296.84,93q-7.53,0-11.36,3.47T281.65,106a10.8,10.8,0,0,0,3.39,8.4q3.39,3.11,10.62,4.43l10.76,1.91q26.25,4.73,26.25,28.61,0,15.35-9.81,23.45t-26.47,8.11q-16.36,0-25.51-8.18T260.71,149Z"/><path d="M378.53,186.64q-2.94,8.42-8.48,12.24t-14.67,3.84H349V186.35h5.75q4.43,0,6.56-1.55c1.43-1,2.58-3,3.47-5.83l.29-1-25.95-74.62h19.32l15,48.23,15.34-48.23h18.73Z"/><path d="M434.72,103.32v6.93a22.2,22.2,0,0,1,8.18-5.82,25.7,25.7,0,0,1,10-2q11.79,0,18.28,7.37t6.49,20.2v50H459.35V132.23q0-6.49-3.25-10a11.22,11.22,0,0,0-8.7-3.54,11.75,11.75,0,0,0-8.77,3.54q-3.47,3.54-3.47,10V180H416.88V103.32Z"/><path d="M492.23,148.74v-14.3q0-16.36,8.33-24.19t22.79-7.81q14.16,0,22.12,7.22t8,20.06v1.47H536v-.88q0-5.46-3.32-8.55t-9.07-3.1q-13.28,0-13.27,16.07V148.6q0,8.7,3.47,12.38t9.8,3.69q5.76,0,9.07-2.95a10.49,10.49,0,0,0,3.32-8.26v-.88h17.4v1q0,12.67-8,20t-22.12,7.3q-14.46,0-22.79-7.81T492.23,148.74Z"/><path d="M585.87,180H568V76.78h18.29v33.36a20,20,0,0,1,17.1-8.83q11.51,0,18.73,7.93t7.23,24.08v15.41q0,16.16-7.23,24.16a23.42,23.42,0,0,1-18.14,8q-11.64,0-18.14-8.08Zm25.22-45.92q0-8.67-3.32-12.49a12.38,12.38,0,0,0-18.21.37c-2.26,2.8-3.39,6.83-3.39,12.12v14.06q0,7.94,3.46,12.12t9.66,4.19q11.81,0,11.8-16.31Z"/><path d="M701.93,129.57V180H684.24v-6.64a25.16,25.16,0,0,1-7.89,5.75,25.76,25.76,0,0,1-10.25,1.77q-11.8,0-18.29-6.34T641.32,157q0-10.32,6.93-16.29t19.32-6h16.22v-6q0-12.24-12.24-12.24a12.19,12.19,0,0,0-8.18,2.58,8.54,8.54,0,0,0-3,6.86v.44h-17v-.59q0-10.77,7.67-17t20.64-6.27q14.59,0,22.42,6.86T701.93,129.57Zm-18.14,23.15v-5.45H670.52q-11.5,0-11.5,9.29,0,9.58,11.21,9.58,7.21,0,10.39-3.31C682.74,160.61,683.79,157.25,683.79,152.72Z"/><path d="M714.47,157.3v-.59h17.11V157a7.75,7.75,0,0,0,3.46,6.71,15.47,15.47,0,0,0,9.07,2.43q6,0,9.44-2.13a7.1,7.1,0,0,0,3.39-6.42,6.48,6.48,0,0,0-2.51-5.46c-1.67-1.27-4.47-2.21-8.4-2.8L737.92,148q-11.5-1.92-17-7.08t-5.46-14.75q0-10.91,8-17.33t20.57-6.41a37.52,37.52,0,0,1,15.12,2.87,23.93,23.93,0,0,1,10.17,8A19.25,19.25,0,0,1,773,124.71v.88h-17v-.44a7.13,7.13,0,0,0-3.18-6.2q-3.17-2.2-8.77-2.21T735.56,119a7,7,0,0,0-2.95,5.9,6.57,6.57,0,0,0,2.28,5.31c1.53,1.28,4,2.16,7.45,2.66l9,1.32q11.49,1.63,17.25,7.08t5.75,15q0,11.81-8.55,18.22t-22.27,6.41q-13.12,0-21.09-6.41T714.47,157.3Z"/><path d="M803.84,149.19q0,8.55,3.83,12.24t10.91,3.68q5.46,0,8.56-2.28a8.35,8.35,0,0,0,3.39-6.42l.15-.44h17.4v.74A21.59,21.59,0,0,1,840,174.26q-8.12,6.63-22.12,6.63-14.76,0-23.45-8.48t-8.7-26.17V137q0-17.26,8.4-25.89t23.16-8.62q14.44,0,22.93,8.7T848.67,137v10.17H803.84Zm0-15.05v.45h26.54v-1.92q0-14.59-13.12-14.6-6.5,0-10,3.69T803.84,134.14Z"/></svg>
