<?xml version="1.0" standalone="no"?>
<!DOCTYPE svg PUBLIC "-//W3C//DTD SVG 20010904//EN"
 "http://www.w3.org/TR/2001/REC-SVG-20010904/DTD/svg10.dtd">
<svg version="1.0" xmlns="http://www.w3.org/2000/svg"
 width="700.000000pt" height="700.000000pt" viewBox="0 0 700.000000 700.000000"
 preserveAspectRatio="xMidYMid meet">
<metadata>
Created by potrace 1.14, written by Peter Selinger 2001-2017
</metadata>
<g transform="translate(0.000000,700.000000) scale(0.100000,-0.100000)"
fill="#000000" stroke="none">
<path d="M1045 6985 c-134 -21 -234 -53 -360 -115 -257 -127 -442 -314 -565
-573 -56 -117 -84 -211 -105 -347 -22 -143 -22 -4757 0 -4900 21 -136 49 -230
105 -347 87 -184 215 -340 375 -461 87 -66 285 -164 385 -192 188 -52 89 -50
2620 -50 2532 0 2434 -2 2620 50 99 28 261 106 356 172 92 63 210 178 282 273
66 87 164 285 192 385 52 188 50 89 50 2620 0 2532 2 2434 -50 2620 -28 99
-106 261 -172 357 -68 99 -202 233 -301 301 -96 66 -258 144 -357 172 -187 52
-86 50 -2630 49 -1847 -1 -2383 -4 -2445 -14z m51 -491 c37 -15 840 -413 1784
-884 l1716 -858 247 -374 c136 -206 247 -382 247 -391 0 -9 -10 -27 -22 -41
l-23 -26 -445 -26 -445 -26 -1373 686 -1372 686 -2 -1173 -3 -1172 -148 257
c-99 171 -161 268 -187 292 -81 73 -198 74 -280 0 -25 -23 -91 -127 -196 -310
l-159 -275 -3 1613 c-1 1130 1 1629 9 1666 16 80 73 184 134 244 138 139 345
183 521 112z m5308 -2678 c100 -101 146 -211 146 -351 0 -138 -53 -258 -157
-356 -62 -57 -159 -107 -2672 -1364 -1435 -717 -2634 -1311 -2666 -1320 -42
-13 -84 -16 -159 -13 -92 3 -108 7 -179 41 -141 66 -245 197 -276 345 -7 36
-11 309 -11 859 l0 806 227 394 c175 304 233 395 250 399 58 15 61 12 287
-381 l216 -374 0 -401 c0 -260 3 -400 10 -400 13 0 3530 1758 3530 1765 0 3
-102 56 -227 119 -126 63 -221 115 -213 116 8 0 156 9 329 20 277 17 319 22
358 41 84 41 133 145 112 239 -7 30 -64 126 -179 302 -94 141 -170 260 -170
263 0 3 311 -150 691 -341 671 -336 693 -348 753 -408z"/>
</g>
</svg>
